/vscmnt/brussel_pixiu_data/_data_brussel/112/vsc11236/PredSimResults/SUBJ11_Dhondt2024_3seg/weighted/worker_03.mot
version=1
nRows=4
nColumns=124
inDegrees=yes
endheader
                time	         pelvis_tilt	         pelvis_list	     pelvis_rotation	           pelvis_tx	           pelvis_ty	           pelvis_tz	       hip_flexion_r	     hip_adduction_r	      hip_rotation_r	        knee_angle_r	       ankle_angle_r	    subtalar_angle_r	         mtp_angle_r	       hip_flexion_l	     hip_adduction_l	      hip_rotation_l	        knee_angle_l	       ankle_angle_l	    subtalar_angle_l	         mtp_angle_l	    lumbar_extension	      lumbar_bending	     lumbar_rotation	          arm_flex_r	           arm_add_r	           arm_rot_r	        elbow_flex_r	          arm_flex_l	           arm_add_l	           arm_rot_l	        elbow_flex_l	glut_med1_r/activation	glut_med2_r/activation	glut_med3_r/activation	glut_min1_r/activation	glut_min2_r/activation	glut_min3_r/activation	semimem_r/activation	semiten_r/activation	bifemlh_r/activation	bifemsh_r/activation	    sar_r/activation	add_long_r/activation	add_brev_r/activation	add_mag1_r/activation	add_mag2_r/activation	add_mag3_r/activation	    tfl_r/activation	   pect_r/activation	   grac_r/activation	glut_max1_r/activation	glut_max2_r/activation	glut_max3_r/activation	iliacus_r/activation	  psoas_r/activation	quad_fem_r/activation	    gem_r/activation	   peri_r/activation	rect_fem_r/activation	vas_med_r/activation	vas_int_r/activation	vas_lat_r/activation	med_gas_r/activation	lat_gas_r/activation	 soleus_r/activation	tib_post_r/activation	flex_dig_r/activation	flex_hal_r/activation	tib_ant_r/activation	per_brev_r/activation	per_long_r/activation	per_tert_r/activation	ext_dig_r/activation	ext_hal_r/activation	glut_med1_l/activation	glut_med2_l/activation	glut_med3_l/activation	glut_min1_l/activation	glut_min2_l/activation	glut_min3_l/activation	semimem_l/activation	semiten_l/activation	bifemlh_l/activation	bifemsh_l/activation	    sar_l/activation	add_long_l/activation	add_brev_l/activation	add_mag1_l/activation	add_mag2_l/activation	add_mag3_l/activation	    tfl_l/activation	   pect_l/activation	   grac_l/activation	glut_max1_l/activation	glut_max2_l/activation	glut_max3_l/activation	iliacus_l/activation	  psoas_l/activation	quad_fem_l/activation	    gem_l/activation	   peri_l/activation	rect_fem_l/activation	vas_med_l/activation	vas_int_l/activation	vas_lat_l/activation	med_gas_l/activation	lat_gas_l/activation	 soleus_l/activation	tib_post_l/activation	flex_dig_l/activation	flex_hal_l/activation	tib_ant_l/activation	per_brev_l/activation	per_long_l/activation	per_tert_l/activation	ext_dig_l/activation	ext_hal_l/activation	 ercspn_r/activation	 ercspn_l/activation	 intobl_r/activation	 intobl_l/activation	 extobl_r/activation	 extobl_l/activation	
          0.00000000	         -2.92994204	         -2.00946726	          2.40183814	          0.00000000	          0.92380883	         -0.00331679	         24.52428607	          3.43732308	          2.47410701	         -3.25991175	          4.22035457	         -4.60460161	          0.17614471	        -14.69818227	         -0.03274767	          8.61117675	         -8.44971972	         10.27366347	          5.37796527	         14.59788630	         -4.78511849	          0.94000835	         -2.00272320	        -17.13877846	        -13.45277707	         16.43997306	         22.57985093	         12.22754192	        -13.47077239	         19.37764600	         51.48240253	          0.01457535	          0.01000046	          0.01000133	          0.01000026	          0.01000030	          0.01000055	          0.15943719	          0.02241391	          0.02167323	          0.01000010	          0.01000019	          0.05660274	          0.17375280	          0.12956662	          0.12466828	          0.06643793	          0.01000038	          0.01000600	          0.02440501	          0.01207754	          0.02112194	          0.05059686	          0.01317370	          0.01197080	          0.01480709	          0.01000191	          0.01000027	          0.01000125	          0.08115423	          0.08019054	          0.06625385	          0.01000004	          0.01000010	          0.01000007	          0.01184661	          0.01000155	          0.01000286	          0.26191834	          0.17339297	          0.10470763	          0.13468351	          0.31500250	          0.03895333	          0.21687480	          0.12592149	          0.07621629	          0.28461270	          0.25043984	          0.17402568	          0.01078176	          0.01000029	          0.01000023	          0.04849096	          0.09475463	          0.01000005	          0.01000005	          0.01000009	          0.01000039	          0.01000029	          0.35196849	          0.01000030	          0.01000043	          0.02096557	          0.01622044	          0.01000081	          0.26897075	          0.42383822	          0.01000057	          0.01925474	          0.08255195	          0.24072230	          0.01000015	          0.01000015	          0.01000014	          0.37676040	          0.42701459	          0.36965802	          0.25035064	          0.30475117	          0.35646403	          0.01395705	          0.01000014	          0.02760231	          0.01310924	          0.01458001	          0.01664511	          0.01851461	          0.01000000	          0.02968636	          0.01000001	          0.09215449	          0.01000001	
          0.01244861	         -2.92958314	         -2.22383912	          2.58299006	          0.01576690	          0.92352437	         -0.00303913	         23.54111715	          3.86632491	          2.61730918	         -2.35999687	          3.13484110	         -4.93061827	          0.20567105	        -14.71594939	         -0.33508388	          8.31107203	        -10.09366456	          9.68047232	          6.09617697	         15.91110621	         -4.63392579	          1.33745153	         -2.09010517	        -17.97503277	        -13.45088492	         16.31074276	         22.18496258	         11.98740672	        -13.48601825	         19.35718041	         52.66337179	          0.01207477	          0.01207426	          0.01000008	          0.01207485	          0.01207475	          0.01000141	          0.13204244	          0.01856266	          0.01794923	          0.01000005	          0.01000020	          0.04687698	          0.19151801	          0.16402878	          0.12381916	          0.05502224	          0.01000043	          0.02125595	          0.02021181	          0.01000241	          0.01749268	          0.04190308	          0.01091016	          0.01000008	          0.15650212	          0.01000018	          0.01000015	          0.01458032	          0.06721003	          0.06641194	          0.05486992	          0.01000001	          0.01000002	          0.01000000	          0.01000003	          0.01000022	          0.01000017	          0.26721267	          0.16225846	          0.09914623	          0.13154360	          0.34620224	          0.03226027	          0.22812031	          0.10428483	          0.06312030	          0.23570878	          0.20740767	          0.14412345	          0.01000111	          0.01000017	          0.01000013	          0.04015893	          0.07847335	          0.01458177	          0.01000175	          0.01000104	          0.01000167	          0.01000042	          0.29149223	          0.03175150	          0.01456669	          0.01736357	          0.01343421	          0.01000135	          0.22275443	          0.35101153	          0.01458000	          0.01594648	          0.06836733	          0.20895717	          0.01000034	          0.01000034	          0.01000033	          0.34199556	          0.38770024	          0.34637237	          0.23718202	          0.31237138	          0.35327774	          0.01155886	          0.01000072	          0.02382648	          0.01085674	          0.01207478	          0.01378505	          0.01533331	          0.01374219	          0.02458546	          0.01760501	          0.07631989	          0.01000002	
          0.02489722	         -2.92477156	         -2.44408136	          2.74923965	          0.03182229	          0.92328316	         -0.00276067	         22.55006643	          4.25206751	          2.78417867	         -1.99226787	          1.61905652	         -5.24149526	          0.22549848	        -14.64642568	         -0.64509387	          7.99246919	        -11.89327325	          8.92065701	          6.82749479	         17.28647683	         -4.46725612	          1.74799089	         -2.16677884	        -18.74122267	        -13.45918359	         16.37003588	         21.72582294	         11.63646253	        -13.50246162	         19.32083461	         53.79758484	          0.01000002	          0.01000003	          0.01000025	          0.01000011	          0.01000007	          0.01000007	          0.10935403	          0.02512804	          0.01486555	          0.01006874	          0.01002333	          0.03882232	          0.15861039	          0.13584469	          0.10254390	          0.04556799	          0.01000009	          0.01760511	          0.11394253	          0.01000016	          0.01448722	          0.03470308	          0.01457981	          0.01457991	          0.17419972	          0.03720251	          0.01007572	          0.01207505	          0.05566160	          0.05500065	          0.04544186	          0.01458001	          0.01458058	          0.01207480	          0.01458001	          0.01456209	          0.01458001	          0.22183637	          0.14086212	          0.08756783	          0.10894096	          0.40424416	          0.02671714	          0.18892335	          0.08636592	          0.05227455	          0.19520796	          0.17176955	          0.11935921	          0.01000249	          0.01000040	          0.01000047	          0.03325856	          0.06498959	          0.01207631	          0.01000044	          0.01000068	          0.01000199	          0.01000125	          0.24140619	          0.02629622	          0.01206415	          0.01438046	          0.01112802	          0.01000236	          0.18447929	          0.29069840	          0.01207482	          0.01320657	          0.05662001	          0.17305277	          0.01020070	          0.01206637	          0.01207375	          0.29306889	          0.33667437	          0.31812639	          0.21653132	          0.25874543	          0.31244000	          0.01000000	          0.01000011	          0.03134828	          0.01000004	          0.01000002	          0.01141643	          0.01269864	          0.01644274	          0.02036103	          0.01458001	          0.06320610	          0.01207488	
          0.03734582	         -2.91691571	         -2.67830277	          2.89580761	          0.04805285	          0.92310916	         -0.00249078	         21.52915738	          4.58476073	          2.97372314	         -1.71722033	         -0.16891312	         -5.54305538	          0.21998653	        -14.46031063	         -0.96613451	          7.65411087	        -13.87859518	          7.97405829	          7.55409824	         18.70362340	         -4.29296637	          2.18108075	         -2.23067013	        -19.41412269	        -13.48293257	         16.63341721	         21.19710056	         11.19073490	        -13.51679015	         19.27257369	         54.87387440	          0.19436818	          0.18155640	          0.19006765	          0.06798605	          0.11222488	          0.17372795	          0.09056410	          0.04231202	          0.02174423	          0.01760962	          0.01207417	          0.03215162	          0.13135692	          0.11250302	          0.08492421	          0.03773824	          0.01000608	          0.01458034	          0.09436432	          0.03441346	          0.01217986	          0.02874022	          0.01207477	          0.01207480	          0.14426760	          0.03081031	          0.09135142	          0.01000026	          0.04609751	          0.04555013	          0.03763379	          0.01207478	          0.01207526	          0.01000003	          0.01207479	          0.01206001	          0.01207483	          0.39917775	          0.17217029	          0.09193777	          0.43694047	          0.49224919	          0.19718776	          0.19689798	          0.07152595	          0.04329239	          0.26822506	          0.14225501	          0.09885013	          0.01390886	          0.01000009	          0.01000007	          0.02754386	          0.05382269	          0.01000138	          0.01000010	          0.01000014	          0.01000039	          0.01000023	          0.19992626	          0.02177887	          0.01000027	          0.01190987	          0.01000046	          0.01000025	          0.15278084	          0.24074870	          0.01000009	          0.01093742	          0.04689119	          0.14331770	          0.01000031	          0.01000032	          0.01000022	          0.24271182	          0.27882474	          0.26346378	          0.18594459	          0.21428618	          0.25875457	          0.01000001	          0.01000053	          0.04484993	          0.01000007	          0.01000002	          0.01000007	          0.02972607	          0.03079547	          0.01760499	          0.01207478	          0.05234560	          0.01000012	
